{"title":"Change Of Plans 2011 XViD DVDRip - DTRG - SAFCuk009","uid":6397557,"size":1281493106,"categoryP":"video","categoryS":"movies","magnet":"?xt=urn:btih:1ff1c819093c57d64716365f683e845c872f6158&amp;dn=Change+Of+Plans+2011+XViD+DVDRip+-+DTRG+-+SAFCuk009&amp;tr=udp%3A%2F%2Ftracker.openbittorrent.com%3A80&amp;tr=udp%3A%2F%2Fopen.demonii.com%3A1337&amp;tr=udp%3A%2F%2Ftracker.coppersurfer.tk%3A6969&amp;tr=udp%3A%2F%2Fexodus.desync.com%3A6969","seeders":1,"leechers":0,"uploader":"SAFCukO09","files":3,"time":1305562578,"description":"Format : AVI\nFormat/Info : Audio Video Interleave\nFile size : 1.19 GiB\nDuration : 1h 27mn\nOverall bit rate : 1 945 Kbps\nWriting application : VirtualDubMod 1.5.10.3 | www.virtualdub-fr.org || (build 2550/release)\nWriting library : VirtualDubMod build 2550/release\n\nVideo\nID : 0\nFormat : MPEG-4 Visual\nFormat profile : Simple@L1\nFormat settings, BVOP : No\nFormat settings, QPel : No\nFormat settings, GMC : No warppoints\nFormat settings, Matrix : Default (H.263)\nDuration : 1h 27mn\nBit rate : 1 805 Kbps\nWidth : 720 pixels\nHeight : 404 pixels\nDisplay aspect ratio : 16:9\nFrame rate : 29.970 fps\nColor space : YUV\nChroma subsampling : 4:2:0\nBit depth : 8 bits\nScan type : Progressive\nCompression mode : Lossy\nBits/(Pixel*Frame) : 0.207\nStream size : 1.11 GiB (93%)\nWriting library : DigiArty AV Encoder Core\n\nAudio\nID : 1\nFormat : MPEG Audio\nFormat version : Version 1\nFormat profile : Layer 3\nCodec ID : 55\nCodec ID/Hint : MP3\nDuration : 1h 27mn\nBit rate mode : Constant\nBit rate : 128 Kbps\nChannel(s) : 2 channels\nSampling rate : 44.1 KHz\nCompression mode : Lossy\nStream size : 80.4 MiB (7%)\nAlignment : Split accross interleaves\nInterleave, duration : 33 ms (1.00 video frame)\nInterleave, preload duration : 500 ms\nWriting library : LAME3.98.4\n\n\n\n &lt;a href=&quot;\nhttp://www.imdb.com/title/tt1790658/&quot; rel=&quot;nofollow&quot; target=&quot;_NEW&quot;&gt;\nhttp://www.imdb.com/title/tt1790658/&lt;/a&gt;\n\n\n\n\n\n\n\nUsers: 6.0/10 (59 votes) 3 reviews | Critics: 1 reviews\n\nSally and Jason Danville's life are turned upside down when a tragic accident suddenly names them the caretakers of four young children.\nDirector:\nJohn Kent Harrison\nWriters:\nKaren Hall (teleplay), John Kent Harrison (teleplay), and 2 more credits Ã‚Â»\nStars:\nBrooke White, Joe Flanigan and Phylicia Rashad\n\n\n\n\n\n\n\n\n\n\n\n\n\n\n\nSOURCE .......: Change.of.Plans.2011.NTSC.DVDR-GRiLL .......... Thanks\n\n\n\n\nGreetz to IMAGiNE,Flawl3ss,DiLLoN,BDK,NOiR,TOXiCiNK,THC,Ez,Rx,Boobyblue,TaRiQ786,LKRG,CrEwSaDe\n","torrent":{"xt":"urn:btih:1ff1c819093c57d64716365f683e845c872f6158","amp;dn":"Change+Of+Plans+2011+XViD+DVDRip+-+DTRG+-+SAFCuk009","amp;tr":["udp%3A%2F%2Ftracker.openbittorrent.com%3A80","udp%3A%2F%2Fopen.demonii.com%3A1337","udp%3A%2F%2Ftracker.coppersurfer.tk%3A6969","udp%3A%2F%2Fexodus.desync.com%3A6969"],"infoHash":"1ff1c819093c57d64716365f683e845c872f6158","infoHashBuffer":{"type":"Buffer","data":[31,241,200,25,9,60,87,214,71,22,54,95,104,62,132,92,135,47,97,88]},"announce":[],"urlList":[]}}